<svg id="Layer_1" data-name="Layer 1" xmlns="http://www.w3.org/2000/svg" viewBox="0 0 695.26 153.93"><defs><style>.cls-1{fill:#1226aa;}.cls-2{fill:#3cb4e5;}</style></defs><title>Glotech Logo</title><path class="cls-1" d="M42.45,89.78a52.87,52.87,0,0,1,0-74.69A52.15,52.15,0,0,1,73,.07a7.92,7.92,0,1,1,2,15.71A36.44,36.44,0,0,0,53.64,26.29a37,37,0,0,0,52.28,52.29,36.49,36.49,0,0,0,10.51-21.35,7.92,7.92,0,0,1,15.72,2,52.21,52.21,0,0,1-15,30.54A52.87,52.87,0,0,1,42.45,89.78Z"/><path class="cls-2" d="M106.34,51.62c-1,2.73-3,2.91-4.49.4l-5.32-9.11a23.82,23.82,0,0,0-7.22-7.23L80.2,30.36c-2.51-1.46-2.33-3.48.4-4.48l35.69-13.09c2.73-1,4.14.41,3.14,3.14Z"/><path class="cls-1" d="M79.78,153.69A104.41,104.41,0,0,1,2,119a7.92,7.92,0,1,1,11.81-10.56,88.72,88.72,0,0,0,131.91,0A7.92,7.92,0,1,1,157.55,119,104.43,104.43,0,0,1,79.78,153.69Z"/><path class="cls-2" d="M232.68,123.43h-9.07v-2.82h21.23v2.82h-9.07v24.21h-3.09Z"/><path class="cls-2" d="M247.51,119.45h3v11.7a7.57,7.57,0,0,1,6.84-3.9c4.82,0,7.64,3.25,7.64,8v12.39h-3V136c0-3.71-2-6-5.52-6a5.87,5.87,0,0,0-6,6.25v11.43h-3Z"/><path class="cls-2" d="M269.44,120h3.4v3.28h-3.4Zm.19,7.65h3v20h-3Z"/><path class="cls-2" d="M277.59,127.68h3v3.47a7.56,7.56,0,0,1,6.83-3.9c4.83,0,7.65,3.25,7.65,8v12.39h-3V136c0-3.71-2-6-5.52-6a5.87,5.87,0,0,0-6,6.25v11.43h-3Z"/><path class="cls-2" d="M299.44,119.45h3v19.46l10.78-11.23h3.7l-8.38,8.57,8.65,11.39h-3.55l-7.14-9.31-4.06,4.1v5.21h-3Z"/><path class="cls-2" d="M328.9,151.12l1.35-2.32a12.77,12.77,0,0,0,7.68,2.55c4.41,0,7.26-2.44,7.26-7.11v-2.35a9.47,9.47,0,0,1-7.84,4.21,9.23,9.23,0,0,1-9.38-9.35v-.08a9.45,9.45,0,0,1,17.18-5.4v-3.59h3v16.49a9.62,9.62,0,0,1-2.55,7.06c-1.78,1.78-4.44,2.67-7.61,2.67A15.66,15.66,0,0,1,328.9,151.12Zm16.37-14.41v-.07c0-4.1-3.55-6.76-7.34-6.76A6.6,6.6,0,0,0,331,136.6v.07a6.76,6.76,0,0,0,6.91,6.8C341.72,143.47,345.27,140.73,345.27,136.71Z"/><path class="cls-2" d="M353.11,119.45h3v28.19h-3Z"/><path class="cls-2" d="M359.83,137.76v-.08a10.41,10.41,0,0,1,20.81-.08v.08a10.36,10.36,0,0,1-10.47,10.42A10.22,10.22,0,0,1,359.83,137.76Zm17.76,0v-.08a7.56,7.56,0,0,0-7.42-7.8c-4.32,0-7.29,3.51-7.29,7.72v.08a7.49,7.49,0,0,0,7.37,7.76A7.37,7.37,0,0,0,377.59,137.76Z"/><path class="cls-2" d="M387.05,143.82v3.82h-3V119.45h3v12.24c1.62-2.39,4-4.44,7.64-4.44,4.79,0,9.54,3.79,9.54,10.35v.08c0,6.52-4.71,10.39-9.54,10.39A9,9,0,0,1,387.05,143.82Zm14.13-6.1v-.08c0-4.71-3.25-7.72-7-7.72a7.44,7.44,0,0,0-7.22,7.68v.08a7.43,7.43,0,0,0,7.22,7.72C398,145.4,401.18,142.54,401.18,137.72Z"/><path class="cls-2" d="M406.27,141.85v-.08c0-4.28,3.48-6.52,8.54-6.52a20.65,20.65,0,0,1,6.1.85v-.62c0-3.55-2.16-5.41-5.91-5.41a13.88,13.88,0,0,0-6.06,1.43l-.89-2.43a16.26,16.26,0,0,1,7.26-1.7c2.82,0,5,.77,6.45,2.2a7.89,7.89,0,0,1,2.08,5.87v12.2h-2.93v-3a8.77,8.77,0,0,1-7.18,3.4C410,148.07,406.27,145.94,406.27,141.85ZM421,140.3v-1.85a20.72,20.72,0,0,0-5.83-.85c-3.71,0-5.83,1.62-5.83,4v.07c0,2.51,2.31,4,5,4C418,145.67,421,143.47,421,140.3Z"/><path class="cls-2" d="M428.48,119.45h3v28.19h-3Z"/><path class="cls-2" d="M434.88,151c1.93-.7,2.75-1.7,2.59-3.36h-1.39v-4h3.55v3.47c0,3.13-1.35,4.63-4.28,5.29Z"/><path class="cls-2" d="M456.58,143.82v3.82h-3V119.45h3v12.24c1.62-2.39,4-4.44,7.65-4.44,4.79,0,9.54,3.79,9.54,10.35v.08c0,6.52-4.72,10.39-9.54,10.39A9,9,0,0,1,456.58,143.82Zm14.14-6.1v-.08c0-4.71-3.25-7.72-7-7.72a7.44,7.44,0,0,0-7.22,7.68v.08a7.43,7.43,0,0,0,7.22,7.72C467.55,145.4,470.72,142.54,470.72,137.72Z"/><path class="cls-2" d="M486.12,145.52a8.25,8.25,0,0,0,6.29-2.82l1.86,1.66A10.3,10.3,0,0,1,486,148.1c-5.48,0-10-4.21-10-10.42,0-5.79,4.06-10.43,9.58-10.43,5.9,0,9.3,4.71,9.3,10.58,0,.27,0,.58,0,1H479.09A7,7,0,0,0,486.12,145.52Zm5.83-9c-.35-3.63-2.43-6.72-6.37-6.72-3.44,0-6.06,2.86-6.49,6.72Z"/><path class="cls-2" d="M507.66,151.12,509,148.8a12.72,12.72,0,0,0,7.68,2.55c4.4,0,7.26-2.44,7.26-7.11v-2.35a9.49,9.49,0,0,1-7.84,4.21,9.23,9.23,0,0,1-9.38-9.35v-.08a9.45,9.45,0,0,1,17.18-5.4v-3.59h3v16.49a9.62,9.62,0,0,1-2.54,7.06,10.51,10.51,0,0,1-7.61,2.67A15.71,15.71,0,0,1,507.66,151.12ZM524,136.71v-.07c0-4.1-3.56-6.76-7.34-6.76a6.6,6.6,0,0,0-6.91,6.72v.07a6.75,6.75,0,0,0,6.91,6.8C520.48,143.47,524,140.73,524,136.71Z"/><path class="cls-2" d="M531.87,119.45h3v28.19h-3Z"/><path class="cls-2" d="M538.59,137.76v-.08a10.41,10.41,0,0,1,20.81-.08v.08a10.36,10.36,0,0,1-10.46,10.42A10.22,10.22,0,0,1,538.59,137.76Zm17.76,0v-.08a7.55,7.55,0,0,0-7.41-7.8c-4.33,0-7.3,3.51-7.3,7.72v.08a7.5,7.5,0,0,0,7.38,7.76A7.37,7.37,0,0,0,556.35,137.76Z"/><path class="cls-2" d="M562.84,127.68h3v5.21c1.47-3.32,4.37-5.71,8.15-5.56v3.2h-.23c-4.37,0-7.92,3.13-7.92,9.16v7.95h-3Z"/><path class="cls-2" d="M575.39,152.93l1-2.36a6.17,6.17,0,0,0,3.13.74c1.78,0,2.9-.93,4.09-3.75l-9.07-19.88h3.28l7.26,16.64,6.41-16.64h3.17l-8.38,20.62c-1.7,4.13-3.63,5.63-6.65,5.63A9,9,0,0,1,575.39,152.93Z"/><path class="cls-1" d="M223.61,47.57v-.25c0-24.41,18.68-45.08,44.95-45.08,15.19,0,24.53,4.23,33.49,11.83l-9.71,11.58c-6.72-5.73-13.32-9.34-24.4-9.34-16.07,0-28.27,14.07-28.27,30.76v.25c0,17.93,11.83,31.13,29.64,31.13a35.61,35.61,0,0,0,21-6.6V55.54H268.06V42.21h37.11V78.82a55.55,55.55,0,0,1-36.36,13.57C241.54,92.39,223.61,73,223.61,47.57Z"/><path class="cls-1" d="M324.21,0h15.07V90.9H324.21Z"/><path class="cls-1" d="M355.34,58.4v-.25c0-18.8,14.94-34.37,35.12-34.37s35,15.32,35,34.12v.25c0,18.68-14.95,34.24-35.24,34.24C370.16,92.39,355.34,77.08,355.34,58.4Zm55,0v-.25C410.38,46.57,402,37,390.21,37c-12.08,0-19.8,9.47-19.8,20.92v.25c0,11.46,8.34,21.17,20,21.17C402.66,79.32,410.38,69.73,410.38,58.4Z"/><path class="cls-1" d="M443.87,72.72V38.1h-8.34v-13h8.34V7.1h15.07v18h17.68v13H458.94V70.35c0,5.86,3,8.22,8.09,8.22a20.32,20.32,0,0,0,9.34-2.24V88.66A26.45,26.45,0,0,1,462.8,92C451.71,92,443.87,87.16,443.87,72.72Z"/><path class="cls-1" d="M486.33,58.27V58c0-18.81,13.32-34.25,32.12-34.25,20.92,0,31.51,16.44,31.51,35.37,0,1.37-.13,2.74-.25,4.23H501.39c1.62,10.71,9.22,16.69,18.93,16.69,7.35,0,12.58-2.74,17.81-7.85L547,80.07c-6.23,7.47-14.82,12.32-26.9,12.32C501,92.39,486.33,78.57,486.33,58.27ZM535,53.42c-1-9.71-6.72-17.31-16.68-17.31-9.22,0-15.69,7.1-17.06,17.31Z"/><path class="cls-1" d="M561.53,58.4v-.25c0-18.68,14.45-34.37,34.12-34.37,12.45,0,20.17,4.61,26.27,11.33L612.58,45.2C608,40.34,603.12,37,595.52,37c-10.95,0-18.92,9.47-18.92,20.92v.25c0,11.71,8.09,21.17,19.67,21.17,7.1,0,12.33-3.36,17.06-8.22l9.09,9c-6.47,7.22-14.07,12.32-26.9,12.32A33.56,33.56,0,0,1,561.53,58.4Z"/><path class="cls-1" d="M636.24,0h15.07V35.36c4.23-6.22,10.33-11.58,20.54-11.58,14.82,0,23.41,10,23.41,25.28V90.9H680.19V53.54c0-10.21-5.1-16.06-14.07-16.06-8.71,0-14.81,6.1-14.81,16.31V90.9H636.24Z"/></svg>